# xmcd
#
# Track frame offsets:
#	182
#	13575
#	28342
#	43957
#	59270
#	73790
#	88052
#	101750
#	116195
#	131412
#	143840
#	156165
#	170877
#	182895
#	194820
#	209447
#	224837
#	238687
#	251907
#	266252
#	280555
#	294817
#
# Disc length: 4127 seconds
#
# Revision: 0
# Processed by: cddbd v1.5.1PL2 Copyright (c) Steve Scherf et al.
# Submitted via: dBpowerAMP V4.0
#
DISCID=66101d16
DTITLE=Lina Margy - Les Etoiles De La Chanson
DYEAR=1900
DGENRE=Retro
TTITLE0=Tu m'apprendras
TTITLE1=Mes vieux joujoux
TTITLE2=Le petit hôtel
TTITLE3=Le carilloneur de Bruges
TTITLE4=Oublie ton rêve
TTITLE5=Mais je t'aime
TTITLE6=Vous m'avez donné des violettes
TTITLE7=Comme une chanson
TTITLE8=Rue du calvaire
TTITLE9=La cascade des amoureux
TTITLE10=Lettres d'amour
TTITLE11=La chanson des rues
TTITLE12=C'est un léger nuage
TTITLE13=On ouvre demain
TTITLE14=La chanson du coeur
TTITLE15=Les jardins nous attendent
TTITLE16=Tout semble rose
TTITLE17=Dans ton faubourg
TTITLE18=Viens dans l'île d'amour
TTITLE19=La rue de notre amour
TTITLE20=Notre Dame des amours
TTITLE21=Mon grand
EXTD=Retro Français
EXTT0=
EXTT1=
EXTT2=
EXTT3=
EXTT4=
EXTT5=
EXTT6=
EXTT7=
EXTT8=
EXTT9=
EXTT10=
EXTT11=
EXTT12=
EXTT13=
EXTT14=
EXTT15=
EXTT16=
EXTT17=
EXTT18=
EXTT19=
EXTT20=
EXTT21=
PLAYORDER=
